<svg xmlns="http://www.w3.org/2000/svg" viewBox="0 0 900 420" role="img" aria-hidden="true">
  <defs>
    <linearGradient id="hs-bg" x1="0%" y1="0%" x2="100%" y2="100%">
      <stop offset="0%" stop-color="#e8fcf4"/>
      <stop offset="55%" stop-color="#fefcf8"/>
      <stop offset="100%" stop-color="#f5efd9"/>
    </linearGradient>
    <linearGradient id="hs-figure" x1="0%" y1="0%" x2="0%" y2="100%">
      <stop offset="0%" stop-color="#0f766e" stop-opacity="0.35"/>
      <stop offset="100%" stop-color="#0f766e" stop-opacity="0.12"/>
    </linearGradient>
    <linearGradient id="hs-accent" x1="0%" y1="0%" x2="100%" y2="0%">
      <stop offset="0%" stop-color="#c5a059" stop-opacity="0.45"/>
      <stop offset="100%" stop-color="#10b981" stop-opacity="0.35"/>
    </linearGradient>
  </defs>
  <rect width="900" height="420" fill="url(#hs-bg)"/>
  <ellipse cx="720" cy="90" rx="120" ry="70" fill="url(#hs-accent)" opacity="0.35"/>
  <ellipse cx="140" cy="320" rx="160" ry="90" fill="url(#hs-accent)" opacity="0.22"/>
  <!-- Silhouette: figure in seated meditation / calm pose -->
  <g fill="url(#hs-figure)" transform="translate(380 48)">
    <ellipse cx="70" cy="38" rx="34" ry="36"/>
    <path d="M70 74 L70 118 Q70 132 58 142 L28 168 Q12 182 8 198 L4 228 L18 232 L32 206 Q38 188 52 176 L70 162 L88 176 Q102 188 108 206 L122 232 L136 228 L132 198 Q128 182 112 168 L82 142 Q70 132 70 118 Z"/>
    <ellipse cx="70" cy="248" rx="52" ry="28"/>
  </g>
  <g stroke="#0f766e" stroke-opacity="0.12" stroke-width="1.2" fill="none">
    <path d="M0 280 Q220 240 450 270 T900 260"/>
    <path d="M40 340 Q280 300 520 330 T880 310"/>
  </g>
</svg>
